<?xml version="1.0" encoding="UTF-8" standalone="no" ?>
<!DOCTYPE svg PUBLIC "-//W3C//DTD SVG 1.1//EN" "http://www.w3.org/Graphics/SVG/1.1/DTD/svg11.dtd">
<svg xmlns="http://www.w3.org/2000/svg" xmlns:xlink="http://www.w3.org/1999/xlink" version="1.1" width="16" height="16" viewBox="0 0 500 500" xml:space="preserve">
<desc>Created with Fabric.js 4.6.0</desc>
<defs>
</defs>
<g transform="matrix(12.38 0 0 12.06 243.15 252.69)" id="VT1pu4G-m8ByTnLn4vnZQ"  >
<path style="stroke: none; stroke-width: 1; stroke-dasharray: none; stroke-linecap: butt; stroke-dashoffset: 0; stroke-linejoin: miter; stroke-miterlimit: 4; fill: rgb(34,35,39); fill-rule: evenodd; opacity: 1;" vector-effect="non-scaling-stroke"  transform=" translate(-29.95, -19.84)" d="M 31.113 20.778 C 34.068 20.067999999999998 35.444 23.717 32.481 24.471999999999998 C 29.456000000000003 25.241999999999997 27.906000000000002 21.546999999999997 31.113000000000003 20.778 Z M 29.677 36.348 L 29.733999999999998 36.301 C 30.089 36.419000000000004 30.808 38.751000000000005 33.363 39.441 C 36.697 40.342000000000006 40.553 38.516000000000005 42.563 35.400000000000006 C 43.139 34.50600000000001 44.937000000000005 31.306000000000004 43.411 30.673000000000005 C 42.076 30.120000000000005 41.548 33.22800000000001 40.704 34.493 C 39.798 35.85 38.226 36.902 36.653 37.272000000000006 C 31.293 38.534000000000006 30.72 33.90200000000001 30.769 29.812000000000005 C 33.442 29.011000000000006 36.335 25.559000000000005 36.159 22.643000000000004 C 35.940999999999995 19.033000000000005 30.910999999999998 17.921000000000003 28.044999999999998 18.486000000000004 C 24.267 19.232000000000003 22.131999999999998 21.800000000000004 24.075 25.623000000000005 C 26.265 29.927000000000007 28.643 29.085000000000004 28.750999999999998 30.337000000000003 C 29.141 34.837 26.508999999999997 39.834 20.947999999999997 36.509 C 19.608999999999998 35.708 18.693999999999996 34.529 18.026999999999997 33.129 C 17.778999999999996 32.608999999999995 17.394 31.112 17.174999999999997 30.877 C 16.545999999999996 30.206 15.427999999999997 30.718999999999998 15.463999999999997 31.738999999999997 C 15.558999999999997 34.431999999999995 18.513999999999996 37.881 20.938999999999997 38.882 C 24.278999999999996 40.262 28.003999999999998 39.931999999999995 29.676999999999996 36.349 Z M 36.023 15.816 C 35.254000000000005 14.029 34.510000000000005 12.251000000000001 35.704 10.332 C 36.804 8.565000000000001 38.911 8.502 40.469 9.715 C 43.731 12.251999999999999 43.727000000000004 18.558999999999997 39.609 18.284 C 41.866 17.549999999999997 42.545 15.169999999999998 41.483000000000004 13.085999999999999 L 39.05 14.93 L 39.858999999999995 11.797 C 36.992 11.085 35.955999999999996 13.387 36.022999999999996 15.815000000000001 Z M 37.293000000000006 6.823 C 29.823000000000008 8.343 33.31100000000001 21.692 40.657000000000004 20.389000000000003 C 48.097 19.069000000000003 44.684000000000005 5.319000000000003 37.293000000000006 6.823000000000002 Z M 21.235 14.669 L 18.889 12.843 C 18.2 13.566 18.141 14.940999999999999 18.429 15.864 C 18.772 16.963 19.209 17.258 20.058999999999997 17.857 C 15.910999999999998 17.514 16.514999999999997 12.166 18.912 9.697 C 20.142 8.431 22.122 7.936999999999999 23.58 9.159999999999998 C 25.147 10.471999999999998 24.767 12.681999999999999 24.366999999999997 14.384999999999998 C 23.711999999999996 13.294999999999998 23.875999999999998 11.924999999999997 21.892999999999997 11.509999999999998 C 19.685999999999996 11.048999999999998 20.673 11.947999999999999 21.234999999999996 14.668999999999997 Z M 20.88 6.37 C 13.12 7.654 13.152999999999999 21.22 20.904999999999998 19.96 C 28.636999999999997 18.702 28.601999999999997 5.093 20.88 6.370000000000001 Z M 34.938 0.046 C 33.824000000000005 0.22599999999999998 33.666000000000004 1.5390000000000001 34.381 2.015 C 35.106 2.497 36.939 1.48 38.868 4.351 C 39.342 5.057 39.542 6.171 40.513000000000005 6.05 C 43.176 5.718 38.947 -0.6000000000000005 34.938 0.04600000000000026 Z M 22.32 0.07 C 20.606 0.317 19.2 1.3820000000000001 18.208 2.76 C 15.787999999999998 6.129 18.212999999999997 6.619999999999999 18.898999999999997 5.602 C 19.836 4.212000000000001 20.33 2.6770000000000005 22.282999999999998 2.2470000000000003 C 23.092999999999996 2.0690000000000004 24.564999999999998 2.4930000000000003 24.493 1.0570000000000004 C 24.433 -0.12499999999999956 23.176 -0.052999999999999714 22.319 0.0710000000000004 Z" stroke-linecap="round" />
</g>
</svg>